<?xml version="1.0" standalone="no"?><!DOCTYPE svg PUBLIC "-//W3C//DTD SVG 1.1//EN" "http://www.w3.org/Graphics/SVG/1.1/DTD/svg11.dtd"><svg t="1684502923996" class="icon" viewBox="0 0 1024 1024" version="1.1" xmlns="http://www.w3.org/2000/svg" p-id="2851" xmlns:xlink="http://www.w3.org/1999/xlink" width="48" height="48"><path d="M226.58 320.39h-48c-35.9 0-65-29.1-65-65s29.1-65 65-65h48c35.9 0 65 29.1 65 65s-29.1 65-65 65zM723.58 320.39h-322c-35.9 0-65-29.1-65-65s29.1-65 65-65h322c35.9 0 65 29.1 65 65s-29.1 65-65 65zM402.58 580.39h-224c-35.9 0-65-29.1-65-65s29.1-65 65-65h224c35.9 0 65 29.1 65 65s-29.1 65-65 65zM251.58 839.39h-73c-35.9 0-65-29.1-65-65s29.1-65 65-65h73c35.9 0 65 29.1 65 65s-29.1 65-65 65zM424.58 839.39h-1c-35.9 0-65-29.1-65-65s29.1-65 65-65h1c35.9 0 65 29.1 65 65s-29.1 65-65 65zM954.82 588.59l-93.4-161.78a59.189 59.189 0 0 0-51.27-29.6h-186.8a59.201 59.201 0 0 0-51.27 29.6l-93.4 161.78a59.225 59.225 0 0 0 0 59.2l93.4 161.78a59.189 59.189 0 0 0 51.27 29.6h186.81c21.15 0 40.69-11.28 51.27-29.6l93.4-161.78a59.2 59.2 0 0 0-0.01-59.2z m-238.07 95.78c-36.55 0-66.18-29.63-66.18-66.18 0-36.55 29.63-66.18 66.18-66.18 36.55 0 66.18 29.63 66.18 66.18 0 36.55-29.63 66.18-66.18 66.18z" p-id="2852" fill="#ffffff"></path></svg>