<?xml version="1.0" standalone="no"?><!DOCTYPE svg PUBLIC "-//W3C//DTD SVG 1.1//EN" "http://www.w3.org/Graphics/SVG/1.1/DTD/svg11.dtd"><svg t="1684502969583" class="icon" viewBox="0 0 1024 1024" version="1.1" xmlns="http://www.w3.org/2000/svg" p-id="3247" xmlns:xlink="http://www.w3.org/1999/xlink" width="48" height="48"><path d="M217.8 319.89h-48c-35.9 0-65-29.1-65-65s29.1-65 65-65h48c35.9 0 65 29.1 65 65s-29.1 65-65 65zM714.8 319.89h-322c-35.9 0-65-29.1-65-65s29.1-65 65-65h322c35.9 0 65 29.1 65 65s-29.1 65-65 65zM403.8 579.89h-234c-35.9 0-65-29.1-65-65s29.1-65 65-65h234c35.9 0 65 29.1 65 65s-29.1 65-65 65zM252.8 838.89h-83c-35.9 0-65-29.1-65-65s29.1-65 65-65h83c35.9 0 65 29.1 65 65s-29.1 65-65 65zM425.8 838.89h-1c-35.9 0-65-29.1-65-65s29.1-65 65-65h1c35.9 0 65 29.1 65 65s-29.1 65-65 65zM717.73 398.22c-122.04 0-220.97 98.93-220.97 220.97 0 122.04 98.93 220.97 220.97 220.97 122.04 0 220.97-98.93 220.97-220.97 0.01-122.04-98.93-220.97-220.97-220.97zM822 554.48l-165.25 171.2c-5.9 6.12-13.77 9.19-21.65 9.19-7.52 0-15.05-2.8-20.89-8.44-11.95-11.54-12.29-30.58-0.75-42.54l165.25-171.2c11.54-11.96 30.58-12.29 42.54-0.75 11.95 11.55 12.29 30.59 0.75 42.54z" p-id="3248" fill="#ffffff"></path></svg>