<?xml version="1.0" standalone="no"?><!DOCTYPE svg PUBLIC "-//W3C//DTD SVG 1.1//EN" "http://www.w3.org/Graphics/SVG/1.1/DTD/svg11.dtd"><svg t="1684503067207" class="icon" viewBox="0 0 1024 1024" version="1.1" xmlns="http://www.w3.org/2000/svg" p-id="4441" xmlns:xlink="http://www.w3.org/1999/xlink" width="48" height="48"><path d="M221.58 319.89h-48c-35.9 0-65-29.1-65-65s29.1-65 65-65h48c35.9 0 65 29.1 65 65s-29.1 65-65 65zM718.58 319.89h-322c-35.9 0-65-29.1-65-65s29.1-65 65-65h322c35.9 0 65 29.1 65 65s-29.1 65-65 65zM407.58 579.89h-234c-35.9 0-65-29.1-65-65s29.1-65 65-65h234c35.9 0 65 29.1 65 65s-29.1 65-65 65zM256.58 838.89h-83c-35.9 0-65-29.1-65-65s29.1-65 65-65h83c35.9 0 65 29.1 65 65s-29.1 65-65 65zM429.58 838.89h-1c-35.9 0-65-29.1-65-65s29.1-65 65-65h1c35.9 0 65 29.1 65 65s-29.1 65-65 65zM713.96 396.72c-122.04 0-220.97 98.93-220.97 220.97s98.93 220.97 220.97 220.97 220.97-98.93 220.97-220.97S836 396.72 713.96 396.72zM837.9 561.91L689.88 715.26a30.078 30.078 0 0 1-21.38 9.19h-0.27c-7.97 0-15.63-3.17-21.27-8.81l-56.57-56.57c-11.75-11.75-11.75-30.79 0-42.54s30.79-11.75 42.54 0l34.92 34.91 126.76-131.32c11.54-11.96 30.58-12.29 42.54-0.75 11.95 11.54 12.29 30.58 0.75 42.54z" p-id="4442" fill="#ffffff"></path></svg>